<svg width="101" height="107" viewBox="0 0 101 107" fill="none" xmlns="http://www.w3.org/2000/svg">
<path d="M83.012 26.5C83.012 25.973 82.741 25.51 82.33 25.242L66.477 11.637C66.327 11.508 66.153 11.426 65.972 11.366C65.709 11.141 65.373 11 65 11H18.5C17.671 11 17 11.671 17 12.5V105.5C17 106.328 17.671 107 18.5 107H81.5C82.328 107 83 106.328 83 105.5V27C83 26.933 82.989 26.87 82.98 26.805C83.001 26.707 83.012 26.604 83.012 26.5ZM20 104V14H64V26.5C64 27.329 64.672 28 65.5 28H80V104H20Z" fill="black"/>
<path d="M20 104V14H64V26.5C64 27.329 64.672 28 65.5 28H80V104H20Z" fill="white"/>
<path d="M69 40H31C30.448 40 30 39.552 30 39C30 38.448 30.448 38 31 38H69C69.553 38 70 38.448 70 39C70 39.552 69.553 40 69 40Z" fill="black"/>
<path d="M69 54H31C30.448 54 30 53.552 30 53C30 52.448 30.448 52 31 52H69C69.553 52 70 52.448 70 53C70 53.552 69.553 54 69 54Z" fill="black"/>
<path d="M69 66H31C30.448 66 30 65.553 30 65C30 64.447 30.448 64 31 64H69C69.553 64 70 64.447 70 65C70 65.553 69.553 66 69 66Z" fill="black"/>
<path d="M69 80H31C30.448 80 30 79.553 30 79C30 78.447 30.448 78 31 78H69C69.553 78 70 78.447 70 79C70 79.553 69.553 80 69 80Z" fill="black"/>
<path d="M5.00183 4.9998L96 95.9983" stroke="#D50000" stroke-width="10" stroke-linecap="round"/>
<path d="M95.9985 5L5 95.997" stroke="#D50000" stroke-width="10" stroke-linecap="round"/>
</svg>
