<svg width="140" height="96" viewBox="0 0 140 96" fill="none" xmlns="http://www.w3.org/2000/svg">
<path d="M103.012 15.5C103.012 14.973 102.741 14.51 102.33 14.242L86.477 0.637C86.327 0.508 86.153 0.426 85.972 0.366C85.709 0.141 85.373 0 85 0H38.5C37.671 0 37 0.671 37 1.5V94.5C37 95.328 37.671 96 38.5 96H101.5C102.328 96 103 95.328 103 94.5V16C103 15.933 102.989 15.87 102.98 15.805C103.001 15.707 103.012 15.604 103.012 15.5ZM40 93V3H84V15.5C84 16.329 84.672 17 85.5 17H100V93H40Z" fill="black"/>
<path d="M40 93V3H84V15.5C84 16.329 84.672 17 85.5 17H100V93H40Z" fill="white"/>
<path d="M89 28H51C50.448 28 50 27.552 50 27C50 26.448 50.448 26 51 26H89C89.553 26 90 26.448 90 27C90 27.552 89.553 28 89 28Z" fill="black"/>
<path d="M89 43H51C50.448 43 50 42.552 50 42C50 41.448 50.448 41 51 41H89C89.553 41 90 41.448 90 42C90 42.552 89.553 43 89 43Z" fill="black"/>
<path d="M89 55H51C50.448 55 50 54.553 50 54C50 53.447 50.448 53 51 53H89C89.553 53 90 53.447 90 54C90 54.553 89.553 55 89 55Z" fill="black"/>
<path d="M89 69H51C50.448 69 50 68.553 50 68C50 67.447 50.448 67 51 67H89C89.553 67 90 67.447 90 68C90 68.553 89.553 69 89 69Z" fill="black"/>
<path d="M62.7182 47.6102H40.778V25.3736C40.778 21.8538 37.9783 19 34.5084 19C31.0384 19 28.2402 21.8538 28.2402 25.3751V47.6256H6.28945C2.81946 47.6256 -0.00151746 50.4794 2.46775e-06 54.0008C-0.00151746 55.7599 0.699168 57.3726 1.83455 58.5243C2.97145 59.679 4.54002 60.4083 6.27273 60.4083H28.2402V82.628C28.2402 84.3886 28.9287 85.9828 30.0656 87.1329C31.2025 88.2862 32.7665 89 34.5023 89C37.9707 89 40.778 86.1462 40.778 82.628V60.4067H62.7182C66.1881 60.4067 69.0015 57.5283 69 54.0085C68.9985 50.4902 66.1851 47.6102 62.7182 47.6102Z" fill="#00AF12"/>
<path d="M111.369 48H133.627C137.144 48 139.998 50.9254 140 54.4992C140.002 58.0746 137.147 60.9984 133.627 60.9984H111.369L98.6495 61H76.3636C74.6058 61 73.0145 60.2592 71.8611 59.0863C70.7093 57.9164 69.9985 56.2783 70 54.4914C69.9985 50.9145 72.8603 48.0157 76.3806 48.0157H98.6495L111.369 48Z" fill="#F40000"/>
</svg>
