<svg width="88" height="96" viewBox="0 0 88 96" fill="none" xmlns="http://www.w3.org/2000/svg">
<path d="M77.012 15.5C77.012 14.973 76.741 14.51 76.33 14.242L60.477 0.637C60.327 0.508 60.153 0.426 59.972 0.366C59.709 0.141 59.373 0 59 0H12.5C11.671 0 11 0.671 11 1.5V94.5C11 95.328 11.671 96 12.5 96H75.5C76.328 96 77 95.328 77 94.5V16C77 15.933 76.989 15.87 76.98 15.805C77.001 15.707 77.012 15.604 77.012 15.5ZM14 93V3H58V15.5C58 16.329 58.672 17 59.5 17H74V93H14Z" fill="black"/>
<path d="M14 93V3H58V15.5C58 16.329 58.672 17 59.5 17H74V93H14Z" fill="white"/>
<path d="M80.0427 65.0862C78.4018 64.4491 73.7235 62.9622 68.1054 63.8094C64.8425 64.3075 46.339 67.2177 45.1708 67.2177C43.9998 67.2177 43.9998 67.2177 43.9998 67.2177C43.9998 67.2177 43.9998 67.2177 42.8288 67.2177C41.6578 67.2177 23.1574 64.3075 19.8945 63.8094C14.2762 62.9622 9.59815 64.4491 7.95726 65.0862C1.07143 67.7719 3.38109 74.0414 4.91456 76.3656C7.02003 79.5566 15.039 87.9405 22.9372 88.917C33.2335 90.1939 42.1281 82.9625 44 82.9625C45.8718 82.9625 54.7636 90.1939 65.0627 88.917C72.9609 87.9405 80.9799 79.5567 83.0854 76.3656C84.6188 74.0414 86.9311 67.7719 80.0427 65.0862ZM22.6069 79.1317C19.2795 76.1067 19.8354 73.0794 23.7187 72.828C27.6021 72.5741 34.152 74.0927 34.2622 76.1067C34.5362 81.1508 25.9369 82.1591 22.6069 79.1317ZM65.3931 79.1317C62.063 82.1591 53.4639 81.1508 53.7377 76.1067C53.8479 74.0925 60.3979 72.5741 64.2812 72.828C68.1646 73.0794 68.7231 76.1067 65.3931 79.1317Z" fill="black"/>
<path d="M83.6306 44.7322C79.5728 22.3227 56.1629 16.932 44 16.932C31.8398 16.932 8.42463 22.3227 4.36941 44.7323C1.56028 45.3011 0 48.138 0 49.5564C0 50.9748 0 58.9167 0 58.9167H88C88 58.9167 88 50.9748 88 49.5564C88 48.138 86.4397 45.3011 83.6306 44.7322Z" fill="black"/>
</svg>
