<svg width="67" height="117" viewBox="0 0 67 117" fill="none" xmlns="http://www.w3.org/2000/svg">
<path d="M66.012 15.5C66.012 14.973 65.741 14.51 65.33 14.242L49.477 0.637C49.327 0.508 49.153 0.426 48.972 0.366C48.709 0.141 48.373 0 48 0H1.5C0.671 0 0 0.671 0 1.5V94.5C0 95.328 0.671 96 1.5 96H64.5C65.328 96 66 95.328 66 94.5V16C66 15.933 65.989 15.87 65.98 15.805C66.001 15.707 66.012 15.604 66.012 15.5ZM3 93V3H47V15.5C47 16.329 47.672 17 48.5 17H63V93H3Z" fill="black"/>
<path d="M52 29H14C13.448 29 13 28.552 13 28C13 27.448 13.448 27 14 27H52C52.553 27 53 27.448 53 28C53 28.552 52.553 29 52 29Z" fill="black"/>
<path d="M52 43H14C13.448 43 13 42.552 13 42C13 41.448 13.448 41 14 41H52C52.553 41 53 41.448 53 42C53 42.552 52.553 43 52 43Z" fill="black"/>
<path d="M52 55H14C13.448 55 13 54.553 13 54C13 53.447 13.448 53 14 53H52C52.553 53 53 53.447 53 54C53 54.553 52.553 55 52 55Z" fill="black"/>
<path d="M52 69H14C13.448 69 13 68.553 13 68C13 67.447 13.448 67 14 67H52C52.553 67 53 67.447 53 68C53 68.553 52.553 69 52 69Z" fill="black"/>
<path fill-rule="evenodd" clip-rule="evenodd" d="M8.00025 43.0766C7.9912 42.1683 8.22559 41.3285 8.70342 40.557C15.7565 33.8169 22.7621 27.0193 29.7203 20.1646C31.7295 18.725 33.8129 18.6201 35.9707 19.8496C42.9503 26.5683 49.9298 33.2872 56.9095 40.0059C58.5058 41.9217 58.3496 43.6538 56.4407 45.2024C56.1282 45.3074 55.8157 45.4123 55.5031 45.5173C52.2742 45.5961 49.0448 45.6224 45.8151 45.5961C45.8918 57.2053 45.8137 103.362 45.5807 114.953C44.9956 115.961 44.1362 116.617 43.0024 116.921C36.3353 117.026 29.6683 117.026 23.0012 116.921C21.8119 116.615 20.9525 115.906 20.4229 114.795C20.1904 103.255 20.1122 57.1508 20.1885 45.5961C16.9588 45.6224 13.7293 45.5961 10.5004 45.5173C9.16595 45.1958 8.33257 44.3821 8.00025 43.0766Z" fill="#09B306"/>
</svg>
