<svg width="142" height="130" viewBox="0 0 142 130" fill="none" xmlns="http://www.w3.org/2000/svg">
<path d="M64.1955 129.609C97.2246 129.609 124 102.834 124 69.8045C124 36.7754 97.2246 10 64.1955 10C31.1664 10 4.39099 36.7754 4.39099 69.8045C4.39099 102.834 31.1664 129.609 64.1955 129.609Z" fill="#70BFC8"/>
<path d="M95.1633 43.5741C95.1633 43.5741 82.363 46.2212 77.7766 43.7637C77.7766 43.7637 74.7193 39.7961 66.1224 43.196C66.1224 43.196 51.0313 52.2678 50.8371 61.3383C50.8371 61.3383 46.6337 79.2927 62.4946 81.7469C62.4946 81.7469 79.1144 76.2675 81.2186 82.6926C81.2186 82.6926 81.7908 90.6307 83.3195 92.3292C83.3195 92.3292 85.8 95.9806 85.6104 98.1866C85.6104 98.1866 83.8921 105.556 86.1826 111.228C86.1826 111.228 87.7113 116.141 87.5233 117.654C87.5233 117.654 102.041 113.497 106.625 99.888C106.625 99.888 109.302 90.4398 109.491 87.9806C109.491 87.9806 113.312 77.022 114.267 73.6192C114.267 73.6192 117.706 63.4132 111.975 64.7354C111.975 64.7354 107.963 60.9574 105.1 58.1223C102.233 55.2901 96.6932 44.5214 95.1633 43.5741Z" fill="#43B665"/>
<path d="M107.964 57.7492L91.913 43.0097C91.913 43.0097 95.3512 39.9862 94.2068 38.2848C93.0591 36.5817 90.5756 38.8541 88.476 38.8541C86.3751 38.8541 83.5074 40.5538 82.3614 39.0408C81.2169 37.5274 80.4501 37.9055 79.3053 38.8541C78.1592 39.7965 76.0583 41.3083 75.8654 40.3642C75.6757 39.4185 72.2358 39.7982 72.0412 38.8541C71.8545 37.9055 72.618 35.2629 70.8997 35.8289C69.1826 36.3937 66.6963 38.2847 66.3104 39.2305C65.9311 40.1762 64.595 43.0097 63.2547 43.0097C61.9203 43.0097 58.482 43.7641 57.9065 42.6304C57.3343 41.4967 56.1882 37.7158 57.3343 36.5817C58.482 35.4496 64.0892 36.6448 63.8303 35.2629C63.571 33.876 62.9093 30.834 63.7532 30.4023C64.5954 29.9719 66.8876 25.0574 68.4134 24.4909C69.942 23.9216 73.9558 26.001 74.5313 24.6806C74.5313 24.6806 74.7197 20.7113 73.9558 20.1437C73.1906 19.5776 72.6201 17.8762 71.2839 18.0626C69.9433 18.2539 69.3727 19.576 70.3275 20.1437C71.2839 20.7113 72.0429 22.9788 71.4736 22.9788C70.9013 22.9788 65.7399 23.3568 65.5502 22.0347C65.3589 20.7126 66.1241 17.4994 67.8395 16.3641C69.5611 15.232 73.1906 15.4183 74.3384 15.986C75.4861 16.5537 76.8218 15.4183 77.2044 14.4759C77.5886 13.5335 71.7729 10.3681 70.0513 10.3681C70.0513 10.3681 115.332 13.7479 123.103 60.0397C123.103 60.0397 118.279 44.1434 115.035 43.1993C115.035 43.1993 113.313 44.3347 112.165 44.1434C111.019 43.955 105.29 40.3654 104.909 41.3095C104.525 42.2552 107.583 45.4667 110.831 45.8415C114.077 46.2224 114.269 46.6004 114.462 48.3002C114.652 50.0016 115.224 52.6458 114.843 54.3472C114.461 56.0474 112.164 61.1503 107.964 57.7492Z" fill="#43B665"/>
<path d="M60.5828 24.1113C60.5828 24.1113 59.0525 25.0553 58.2907 26.3758C57.5255 27.6992 57.5255 28.8345 57.5255 28.8345C57.5255 28.8345 58.496 29.3989 59.4739 29.4051C60.4534 29.408 63.0679 28.4581 63.0679 27.1344C63.0663 25.8114 60.5828 24.1113 60.5828 24.1113Z" fill="#43B665"/>
<path d="M58.289 12.7749C58.289 12.7749 53.7043 18.2543 51.4104 18.8203C49.1183 19.388 45.3003 21.2761 44.3422 22.0335C43.3875 22.7891 40.1388 21.4658 42.0501 19.9557C43.9597 18.4439 49.1183 15.0395 47.9734 14.6598C46.8257 14.285 41.6687 17.8746 39.5662 19.3863C37.4666 20.8965 35.7437 23.1626 34.7902 24.6789C33.8337 26.189 34.025 30.1566 31.9241 30.9127C29.8233 31.67 20.6509 35.448 17.5952 38.0951C14.5396 40.7389 11.2477 42.6922 9.90863 45.3377C8.57291 47.9832 10.5843 41.1157 11.7675 38.5795C11.7675 38.5795 19.8923 24.11 38.4205 15.0382C38.4205 15.0395 52.5598 11.4499 58.289 12.7749Z" fill="#43B665"/>
<path d="M4.79665 79.2931C4.79665 79.2931 2.88376 69.0888 4.98629 68.1419C7.08428 67.1994 7.71957 67.0003 9.57392 68.8992C11.4204 70.8014 13.9657 74.0038 14.9205 75.7007C15.8753 77.4037 19.3152 79.4798 19.3152 80.8036C19.3152 82.1286 18.5517 85.3405 19.3152 86.8523C20.0804 88.364 21.2264 88.5553 22.9464 89.3098C24.668 90.0626 27.915 91.1979 29.825 92.901C31.7333 94.604 34.4097 96.6802 33.8371 98.948C33.2644 101.216 32.1188 104.617 32.4997 105.939C32.8823 107.261 34.2213 109.529 32.6939 110.473C31.1636 111.418 30.0175 111.23 30.2088 112.93C30.4017 114.63 32.3129 119.915 32.888 120.862C32.8856 120.86 9.06189 110.722 4.79665 79.2931Z" fill="#43B665"/>
<path d="M7.40381 58.2938C7.78639 56.9705 8.74119 50.3574 7.59345 50.3574C5.35035 58.6257 5.43239 58.521 4.53613 64.7189" fill="#43B665"/>
<path d="M132.827 9.45C132.827 9.16542 132.68 8.9154 132.458 8.77068L123.898 1.42398C123.817 1.35432 123.723 1.31004 123.625 1.27764C123.483 1.15614 123.301 1.08 123.1 1.08H97.9901C97.5424 1.08 97.1801 1.44234 97.1801 1.89V52.11C97.1801 52.5571 97.5424 52.92 97.9901 52.92H132.01C132.457 52.92 132.82 52.5571 132.82 52.11V9.72C132.82 9.68382 132.814 9.6498 132.809 9.6147C132.821 9.56178 132.827 9.50616 132.827 9.45ZM98.8001 51.3V2.7H122.56V9.45C122.56 9.89766 122.923 10.26 123.37 10.26H131.2V51.3H98.8001Z" fill="black"/>
<path d="M98.8001 51.3V2.7H122.56V9.45C122.56 9.89766 122.923 10.26 123.37 10.26H131.2V51.3H98.8001Z" fill="white"/>
<path d="M125.26 16.74H104.74C104.442 16.74 104.2 16.4981 104.2 16.2C104.2 15.9019 104.442 15.66 104.74 15.66H125.26C125.559 15.66 125.8 15.9019 125.8 16.2C125.8 16.4981 125.559 16.74 125.26 16.74Z" fill="black"/>
<path d="M125.26 24.3H104.74C104.442 24.3 104.2 24.0581 104.2 23.76C104.2 23.4619 104.442 23.22 104.74 23.22H125.26C125.559 23.22 125.8 23.4619 125.8 23.76C125.8 24.0581 125.559 24.3 125.26 24.3Z" fill="black"/>
<path d="M125.26 30.78H104.74C104.442 30.78 104.2 30.5386 104.2 30.24C104.2 29.9414 104.442 29.7 104.74 29.7H125.26C125.559 29.7 125.8 29.9414 125.8 30.24C125.8 30.5386 125.559 30.78 125.26 30.78Z" fill="black"/>
<path d="M125.26 38.34H104.74C104.442 38.34 104.2 38.0986 104.2 37.8C104.2 37.5014 104.442 37.26 104.74 37.26H125.26C125.559 37.26 125.8 37.5014 125.8 37.8C125.8 38.0986 125.559 38.34 125.26 38.34Z" fill="black"/>
<g filter="url(#filter0_d_14_75)">
<path d="M11 99L27.1973 82.5385L4.84251 76.742L11 99ZM97.538 27.5004C70.3699 26.9845 51.3553 34.9142 38.1247 45.7682C24.9304 56.5924 17.6284 70.2078 13.6439 80.8779L17.3912 82.2772C21.2175 72.0307 28.1805 59.0998 40.6617 48.8607C53.1066 38.6513 71.1779 31.0006 97.462 31.4996L97.538 27.5004Z" fill="black"/>
</g>
<defs>
<filter id="filter0_d_14_75" x="0.842529" y="27.4766" width="100.695" height="79.5234" filterUnits="userSpaceOnUse" color-interpolation-filters="sRGB">
<feFlood flood-opacity="0" result="BackgroundImageFix"/>
<feColorMatrix in="SourceAlpha" type="matrix" values="0 0 0 0 0 0 0 0 0 0 0 0 0 0 0 0 0 0 127 0" result="hardAlpha"/>
<feOffset dy="4"/>
<feGaussianBlur stdDeviation="2"/>
<feComposite in2="hardAlpha" operator="out"/>
<feColorMatrix type="matrix" values="0 0 0 0 0 0 0 0 0 0 0 0 0 0 0 0 0 0 0.25 0"/>
<feBlend mode="normal" in2="BackgroundImageFix" result="effect1_dropShadow_14_75"/>
<feBlend mode="normal" in="SourceGraphic" in2="effect1_dropShadow_14_75" result="shape"/>
</filter>
</defs>
</svg>
